<mxfile host="65bd71144e">
    <diagram id="qy5VWmU2YBBrGhjBY-d2" name="Page-1">
        <mxGraphModel dx="1058" dy="481" grid="1" gridSize="10" guides="1" tooltips="1" connect="1" arrows="1" fold="1" page="1" pageScale="1" pageWidth="850" pageHeight="1100" math="0" shadow="0">
            <root>
                <mxCell id="0"/>
                <mxCell id="1" parent="0"/>
                <mxCell id="2" value="Aduan Kerosakan Komputer" style="text;html=1;strokeColor=none;fillColor=none;align=center;verticalAlign=middle;whiteSpace=wrap;rounded=0;" parent="1" vertex="1">
                    <mxGeometry x="345" y="80" width="110" height="40" as="geometry"/>
                </mxCell>
                <mxCell id="3" value="Mula Pengguna" style="strokeWidth=2;html=1;shape=mxgraph.flowchart.start_1;whiteSpace=wrap;fillColor=#FFFFFF;" parent="1" vertex="1">
                    <mxGeometry x="355" y="160" width="100" height="60" as="geometry"/>
                </mxCell>
                <mxCell id="4" value="Papar Form Page" style="rounded=1;whiteSpace=wrap;html=1;absoluteArcSize=1;arcSize=14;strokeWidth=2;fillColor=#FFFFFF;" parent="1" vertex="1">
                    <mxGeometry x="347.5" y="250" width="115" height="70" as="geometry"/>
                </mxCell>
            </root>
        </mxGraphModel>
    </diagram>
</mxfile>